<svg width="35" height="35" viewBox="0 0 93 91" fill="none" xmlns="http://www.w3.org/2000/svg">
<path fill-rule="evenodd" clip-rule="evenodd" d="M36.1316 35.4316V58.1643C36.1316 67.9233 28.0372 75.8454 18.0658 75.8454C8.09442 75.8454 0 67.9233 0 58.1643V17.7507C0 7.99171 8.09442 0.0697327 18.0658 0.0697327H59.3591C69.3305 0.0697327 77.4249 7.99171 77.4249 17.7507C77.4249 27.5097 69.3305 35.4316 59.3591 35.4316H36.1316Z" fill="#034AFD"/>
<path opacity="0.85" fill-rule="evenodd" clip-rule="evenodd" d="M51.616 50.5863V73.319C51.616 83.078 43.5216 91 33.5502 91C23.5789 91 15.4844 83.078 15.4844 73.319V32.9053C15.4844 23.1464 23.5789 15.2243 33.5502 15.2243H74.8435C84.8149 15.2243 92.9093 23.1464 92.9093 32.9053C92.9093 42.6643 84.8149 50.5863 74.8435 50.5863H51.616Z" fill="#22E0A1"/>
</svg>
